HIERARCHY
ROOT Hips
{
	OFFSET 0.000000 0.000000 0.000000
	CHANNELS 6 Xposition Yposition Zposition Zrotation Yrotation Xrotation 
	JOINT LHipJoint
	{
		OFFSET 0.000000 0.000000 0.000000
		CHANNELS 3 Zrotation Yrotation Xrotation
		JOINT LeftUpLeg
		{
			OFFSET 1.363060 -1.794630 0.839290
			CHANNELS 3 Zrotation Yrotation Xrotation
			JOINT LeftLeg
			{
				OFFSET 2.448110 -6.726130 0.000000
				CHANNELS 3 Zrotation Yrotation Xrotation
				JOINT LeftFoot
				{
					OFFSET 2.562200 -7.039590 0.000000
					CHANNELS 3 Zrotation Yrotation Xrotation
					JOINT LeftToeBase
					{
						OFFSET 0.157640 -0.433110 2.322550
						CHANNELS 3 Zrotation Yrotation Xrotation
						End Site
						{
							OFFSET 0.000000 0.000000 0.000000
						}
					}
				}
			}
		}
	}
	JOINT RHipJoint
	{
		OFFSET 0.000000 0.000000 0.000000
		CHANNELS 3 Zrotation Yrotation Xrotation
		JOINT RightUpLeg
		{
			OFFSET -1.305520 -1.794630 0.839290
			CHANNELS 3 Zrotation Yrotation Xrotation
			JOINT RightLeg
			{
				OFFSET -2.542530 -6.985550 0.000000
				CHANNELS 3 Zrotation Yrotation Xrotation
				JOINT RightFoot
				{
					OFFSET -2.568260 -7.056230 0.000000
					CHANNELS 3 Zrotation Yrotation Xrotation
					JOINT RightToeBase
					{
						OFFSET -0.164730 -0.452590 2.363150
						CHANNELS 3 Zrotation Yrotation Xrotation
						End Site
						{
							OFFSET 0.000000 0.000000 0.000000
						}
					}
				}
			}
		}
	}
}
MOTION
Frames: 19
Frame Time: 0.008333
1.741758 17.231550 -2.102555 -155.455526 74.183799 -120.603401 -13.945204 0.564652 -0.544226 -11.707101 -4.936807 -15.588311 -0.450867 -0.043443 17.921841 2.108062 13.441585 -3.419508 1.113600 -0.000000 -19.984200 5.066534 -0.262911 2.496501 5.893138 7.896070 -58.345507 3.754038 -0.772394 16.896156 0.476175 0.581955 9.916113 -0.774400 0.000000 -68.981800
2.013404 17.248290 -2.170353 -154.826000 74.275778 -120.106102 -14.061127 0.712503 -0.791211 -11.981342 -3.882115 -14.833651 -0.398388 0.053141 18.790925 2.191929 14.200473 -2.680545 1.355400 -0.000000 -18.519600 5.006473 -0.343998 2.728012 6.479656 7.951031 -58.145298 4.236307 -0.383938 12.815591 1.016578 2.868476 12.907679 0.071901 0.000000 -70.405899
2.284315 17.252390 -2.235875 -154.198673 74.434353 -119.735230 -14.144092 0.880800 -1.072065 -12.354882 -2.699147 -14.128191 -0.364445 0.175466 20.142639 2.275289 14.897520 -2.177826 1.543700 0.000000 -17.543400 4.981853 -0.369273 2.869003 7.087197 7.916693 -57.954143 4.640550 -0.091989 9.628001 1.498070 5.306556 15.661683 1.192200 -0.000001 -71.357100
2.554035 17.244172 -2.299679 -153.506826 74.639496 -119.408983 -14.207601 1.062270 -1.390719 -12.770056 -1.372116 -13.490297 -0.343411 0.325172 21.956255 2.354540 15.518392 -1.887346 1.673500 0.000000 -17.005100 4.977198 -0.366306 2.945775 7.680347 7.879049 -57.763749 4.954571 0.105832 7.296896 1.892430 7.722238 18.088719 2.477300 0.000000 -72.050600
2.822485 17.223758 -2.361767 -152.742321 74.879140 -119.099671 -14.259035 1.252193 -1.746586 -13.186057 0.085795 -12.924035 -0.329195 0.502472 24.187114 2.430587 16.079071 -1.778864 1.748401 0.000000 -16.811200 4.986092 -0.354924 2.984586 8.192860 7.903599 -57.562830 5.170487 0.216215 5.770421 2.189442 9.931966 20.085722 3.777999 0.000000 -72.345700
3.089805 17.191113 -2.422559 -151.889107 75.129897 -118.767656 -14.310124 1.444145 -2.137133 -13.553071 1.662898 -12.441645 -0.315454 0.706958 26.790472 2.504393 16.595498 -1.827657 1.772500 -0.000000 -16.850200 5.001952 -0.352229 3.017496 8.544027 8.065729 -57.318512 5.283014 0.255816 4.922250 2.385628 11.702087 21.635064 4.908000 0.000000 -72.439100
3.356419 17.146122 -2.482072 -150.991887 75.377173 -118.437215 -14.365234 1.636113 -2.552361 -13.845195 3.319562 -12.037102 -0.296205 0.936387 29.702855 2.580575 17.108114 -2.003364 1.756900 0.000000 -17.020100 5.024943 -0.365435 3.061846 8.681505 8.389166 -57.027166 5.293961 0.232343 4.690502 2.491599 12.892153 22.688965 5.718400 0.000000 -72.266200
3.622722 17.088889 -2.540614 -150.110425 75.604955 -118.157776 -14.426525 1.827580 -2.979745 -14.045717 5.009787 -11.688685 -0.265810 1.187577 32.851272 2.664599 17.662275 -2.273511 1.714800 -0.000000 -17.249500 5.055559 -0.396028 3.121488 8.596328 8.862535 -56.694254 5.210516 0.150269 5.041721 2.521786 13.448801 23.210044 6.121000 -0.000001 -71.914400
3.889309 17.019632 -2.598726 -149.277236 75.789316 -117.943598 -14.501806 2.015711 -3.405208 -14.122503 6.702862 -11.404727 -0.220367 1.457171 36.187129 2.758467 18.278092 -2.620336 1.651400 0.000000 -17.461200 5.087026 -0.446615 3.207029 8.300891 9.493015 -56.333728 5.042774 0.021413 5.914979 2.486154 13.356778 23.193997 6.078700 0.000000 -71.425200
4.156612 16.938961 -2.656818 -148.546119 75.913596 -117.841321 -14.593352 2.200081 -3.814117 -14.060178 8.360740 -11.176135 -0.157191 1.741507 39.655075 2.864373 18.975703 -3.024077 1.572400 -0.000000 -17.611299 5.114872 -0.513390 3.312502 7.853321 10.244560 -55.974434 4.805214 -0.148368 7.303522 2.396685 12.716562 22.614053 5.642700 0.000000 -70.858400
4.424824 16.847790 -2.715350 -147.959075 75.962392 -117.886894 -14.702304 2.380520 -4.191614 -13.849615 9.949034 -11.002740 -0.074847 2.037197 43.212677 2.982243 19.758069 -3.472094 1.479300 0.000000 -17.665800 5.134787 -0.589795 3.427951 7.332789 11.066738 -55.653650 4.515044 -0.353554 9.213404 2.264367 11.688153 21.447223 4.920600 0.000000 -70.209600
4.693897 16.747386 -2.774782 -147.537725 75.924097 -118.096533 -14.829037 2.556368 -4.525748 -13.486312 11.440775 -10.891351 0.027121 2.341630 46.828494 3.109510 20.609886 -3.957501 1.369500 -0.000000 -17.604400 5.143746 -0.666930 3.541493 6.822057 11.905688 -55.401149 4.190213 -0.587388 11.636975 2.098066 10.447529 19.700518 4.044700 0.000000 -69.519700
4.963274 16.639454 -2.835517 -147.259605 75.789319 -118.447570 -14.974948 2.724669 -4.811445 -12.961140 12.821884 -10.848779 0.148721 2.653535 50.479501 3.240701 21.494814 -4.480475 1.236700 -0.000000 -17.414800 5.138558 -0.736139 3.641023 6.398262 12.719885 -55.220635 3.848831 -0.840459 14.528151 1.903561 9.141631 17.424907 3.136700 -0.000000 -68.861000
5.232842 16.525622 -2.896997 -147.213577 75.576271 -119.007128 -15.125156 2.892278 -5.031859 -12.343264 14.045124 -10.910048 0.290231 2.970470 54.154983 3.372594 22.388667 -5.033581 1.080000 -0.000000 -17.120500 5.137294 -0.780369 3.713432 6.100410 13.406937 -55.186230 3.504896 -1.117040 17.925806 1.695764 7.963360 14.633958 2.318900 -0.000001 -68.085600
5.500981 16.408419 -2.959685 -147.280041 75.278275 -119.661889 -15.285688 3.049358 -5.199791 -11.609810 15.128100 -11.081348 0.452439 3.293381 57.844084 3.495634 23.224623 -5.627015 0.889301 0.000000 -16.721100 5.133920 -0.799403 3.755748 5.960783 13.985853 -55.233463 3.172438 -1.399206 21.663992 1.472739 6.920168 11.485238 1.624700 0.000000 -67.378200
5.766530 16.290180 -3.023264 -147.447920 74.910977 -120.385826 -15.448853 3.194385 -5.316814 -10.809705 16.056845 -11.393982 0.637113 3.621254 61.542909 3.604208 23.959657 -6.259349 0.663400 0.000001 -16.250300 5.139029 -0.789968 3.767686 5.972291 14.429470 -55.367807 2.860729 -1.681958 25.655348 1.241538 6.052265 8.086207 1.078700 0.000001 -66.689600
6.028063 16.173603 -3.087326 -147.672023 74.491355 -121.123529 -15.611563 3.321706 -5.393200 -9.974342 16.834579 -11.872411 0.846301 3.953678 65.245637 3.692765 24.550586 -6.929060 0.403500 -0.000000 -15.738300 5.156333 -0.757015 3.754645 6.117044 14.750384 -55.561514 2.576401 -1.956247 29.758057 1.005643 5.338735 4.576659 0.671200 0.000000 -66.065600
6.283974 16.061320 -3.151749 -147.899425 74.034643 -121.815388 -15.772419 3.424268 -5.441793 -9.132672 17.470489 -12.534771 1.082214 4.289810 68.942622 3.757463 24.965391 -7.634545 0.114200 0.000000 -15.191000 5.185746 -0.710055 3.723430 6.372640 14.973722 -55.778479 2.323659 -2.214533 33.827992 0.768252 4.741781 1.086423 0.380900 0.000000 -65.494900
6.532760 15.955998 -3.216404 -148.091551 73.558694 -122.420592 -15.930087 3.495258 -5.475141 -8.313505 17.975074 -13.390258 1.346683 4.628051 72.614841 3.796924 25.190205 -8.362587 -0.192300 0.000001 -14.651900 5.225231 -0.659792 3.679977 6.715848 15.126725 -55.976755 2.103565 -2.451068 37.727096 0.532604 4.219724 -2.261226 0.185800 0.000001 -65.089000
